<?xml version="1.0" encoding="UTF-8"?>
<svg width="32px" height="32px" viewBox="0 0 32 32" version="1.1" xmlns="http://www.w3.org/2000/svg" xmlns:xlink="http://www.w3.org/1999/xlink">
    <title>facebook_logo_w_click</title>
    <g id="Market+Lend" stroke="none" stroke-width="1" fill="none" fill-rule="evenodd">
        <g id="Widget-3" transform="translate(-812.000000, -399.000000)" fill-rule="nonzero">
            <g id="社交" transform="translate(680.000000, 399.000000)">
                <g id="facebook-logo-w" transform="translate(132.000000, 0.000000)">
                    <path d="M16,0 C7.15768153,0 0,7.1578816 0,16 C0,24.8421184 7.1578816,32 16,32 C24.8423184,32 32,24.8421184 32,16 C32,7.15768153 24.8421184,0 16,0 Z" id="face-book-copy-6" fill="#5ADCFE"></path>
                    <g id="Group-35-Copy-2" transform="translate(12.000000, 9.000000)" fill="#FFFFFF">
                        <path d="M7.22032162,7.49965065 L5.13702241,7.49965065 L5.13702241,15 L2.04228096,15 L2.04228096,7.49965065 L0,7.5 L0,4.91626794 L2.04228096,4.91591857 L2.04228096,3.33999074 C2.04228096,1.26094689 2.92656783,0 5.38910787,0 L8,0 L8,2.58373205 L6.2089792,2.58373205 C5.26210238,2.58373205 5.19898726,2.9622482 5.19898726,3.59166107 L5.19898726,4.85250813 L8,4.85250813 L7.68437442,7.49975046 L7.22032162,7.49965065 Z" id="face-book"></path>
                    </g>
                </g>
            </g>
        </g>
    </g>
</svg>