<?xml version="1.0" encoding="UTF-8"?>
<svg width="40px" height="40px" viewBox="0 0 40 40" version="1.1" xmlns="http://www.w3.org/2000/svg" xmlns:xlink="http://www.w3.org/1999/xlink">
    <title>png_walletconnect</title>
    <defs>
        <radialGradient cx="0%" cy="50%" fx="0%" fy="50%" r="100%" id="radialGradient-1">
            <stop stop-color="#5D9DF6" offset="0%"></stop>
            <stop stop-color="#006FFF" offset="100%"></stop>
        </radialGradient>
    </defs>
    <g id="Market+Lend" stroke="none" stroke-width="1" fill="none" fill-rule="evenodd">
        <g id="Lend-NFTs-5" transform="translate(-512.000000, -588.000000)" fill-rule="nonzero">
            <g id="编组-3" transform="translate(440.000000, 332.000000)">
                <g id="Items" transform="translate(40.000000, 120.000000)">
                    <g id="P-2" transform="translate(0.000000, 112.000000)">
                        <g id="编组" transform="translate(32.000000, 24.000000)">
                            <path d="M20,0 C31.045695,0 40,8.954305 40,20 C40,31.045695 31.045695,40 20,40 C8.954305,40 0,31.045695 0,20 C0,8.954305 8.954305,0 20,0 Z" id="路径" fill="url(#radialGradient-1)"></path>
                            <path d="M12.7102934,15.4460023 C16.736294,11.5179992 23.2637305,11.5179992 27.2897309,15.4460023 L27.7742666,15.9187438 C27.9755666,16.1151439 27.9755666,16.4335715 27.7742666,16.6299717 L26.1167667,18.2471261 C26.0161166,18.3453262 25.8529308,18.3453262 25.7522807,18.2471261 L25.0855021,17.5965776 C22.2768636,14.8563045 17.7231608,14.8563045 14.9145221,17.5965776 L14.2004574,18.2932614 C14.0998073,18.3914614 13.9366213,18.3914614 13.8359714,18.2932614 L12.1784716,16.676107 C11.9771716,16.4797068 11.9771716,16.1612792 12.1784716,15.964879 L12.7102934,15.4460023 Z M30.717597,18.7904486 L32.192775,20.229724 C32.394074,20.4261233 32.3940752,20.744549 32.1927775,20.9409495 L25.541098,27.4308213 C25.3397993,27.6272229 25.0134275,27.6272251 24.8121261,27.4308264 C24.8121253,27.4308256 24.8121243,27.4308246 24.8121235,27.4308238 L20.091166,22.8247729 C20.040841,22.7756728 19.959248,22.7756728 19.908923,22.8247729 C19.9089227,22.8247732 19.9089224,22.8247734 19.9089221,22.8247738 L15.1880652,27.4308213 C14.9867672,27.6272234 14.6603953,27.6272267 14.4590933,27.4308284 C14.4590921,27.4308273 14.4590909,27.4308262 14.4590896,27.4308248 L7.80722496,20.9408668 C7.60592501,20.7444667 7.60592501,20.4260391 7.80722496,20.229639 L9.28240563,18.7903659 C9.48370558,18.5939657 9.81007745,18.5939657 10.0113775,18.7903659 L14.7324036,23.3964812 C14.7827287,23.4455812 14.8643216,23.4455812 14.9146466,23.3964812 C14.9146474,23.3964805 14.914648,23.3964798 14.9146488,23.3964792 L19.6354384,18.7903659 C19.8367338,18.5939612 20.1631057,18.5939538 20.3644102,18.7903494 C20.3644131,18.7903522 20.3644159,18.790355 20.3644186,18.7903577 L25.0854386,23.3964792 C25.1357635,23.4455791 25.2173565,23.4455791 25.2676815,23.3964792 L29.9886252,18.7904486 C30.1899252,18.5940483 30.516297,18.5940483 30.717597,18.7904486 Z" id="形状" fill="#FFFFFF"></path>
                        </g>
                    </g>
                </g>
            </g>
        </g>
    </g>
</svg>