<?xml version="1.0" encoding="UTF-8"?>
<svg width="40px" height="40px" viewBox="0 0 40 40" version="1.1" xmlns="http://www.w3.org/2000/svg" xmlns:xlink="http://www.w3.org/1999/xlink">
    <title>png_metamask</title>
    <defs>
        <rect id="path-1" x="0" y="0" width="40" height="40"></rect>
        <rect id="path-3" x="0" y="0" width="40" height="40"></rect>
    </defs>
    <g id="Market+Lend" stroke="none" stroke-width="1" fill="none" fill-rule="evenodd">
        <g id="Lend-NFTs-5" transform="translate(-512.000000, -476.000000)">
            <g id="编组-3" transform="translate(440.000000, 332.000000)">
                <g id="Items" transform="translate(40.000000, 120.000000)">
                    <g id="编组" transform="translate(32.000000, 24.000000)">
                        <g id="蒙版" fill="#FFFFFF" fill-opacity="0" fill-rule="nonzero">
                            <rect id="path-1" x="0" y="0" width="40" height="40"></rect>
                        </g>
                        <g id="编组-Clipped">
                            <mask id="mask-2" fill="white">
                                <use xlink:href="#path-1"></use>
                            </mask>
                            <g id="path-1"></g>
                            <g id="编组" mask="url(#mask-2)">
                                <g transform="translate(0.000000, -2.187500)" id="icn-metamask">
                                    <g id="矩形" fill="#D8D8D8" fill-opacity="0" fill-rule="nonzero">
                                        <rect id="path-3" x="0" y="0" width="40" height="40"></rect>
                                    </g>
                                    <g id="编组-2-Clipped">
                                        <mask id="mask-4" fill="white">
                                            <use xlink:href="#path-3"></use>
                                        </mask>
                                        <g id="path-3"></g>
                                        <g id="编组-2" mask="url(#mask-4)">
                                            <g transform="translate(2.331380, 3.546110)" id="路径">
                                                <polygon stroke="#E2761B" stroke-width="0.5" fill="#E2761B" fill-rule="nonzero" points="33.5772419 0 19.7887975 10.2408533 22.3386049 4.19889778"></polygon>
                                                <polygon stroke="#E4761B" stroke-width="0.5" fill="#E4761B" fill-rule="nonzero" points="1.74609529 0 15.423642 10.3378607 12.998516 4.19889778"></polygon>
                                                <polygon stroke="#E4761B" stroke-width="0.5" fill="#E4761B" fill-rule="nonzero" points="28.6161753 23.7382756 24.943879 29.3644682 32.8013013 31.5262459 35.0600272 23.862957"></polygon>
                                                <polygon stroke="#E4761B" stroke-width="0.5" fill="#E4761B" fill-rule="nonzero" points="0.291014993 23.862957 2.53596196 31.5262459 10.3932894 29.3644682 6.72099306 23.7382756"></polygon>
                                                <polygon stroke="#E4761B" stroke-width="0.5" fill="#E4761B" fill-rule="nonzero" points="9.94979306 14.2319052 7.76027009 17.5439052 15.5621901 17.8903348 15.2849753 9.50640594"></polygon>
                                                <polygon stroke="#E4761B" stroke-width="0.5" fill="#E4761B" fill-rule="nonzero" points="25.3733901 14.2319052 19.9689457 9.40939853 19.7887975 17.8903348 27.5767679 17.5439052"></polygon>
                                                <polygon stroke="#E4761B" stroke-width="0.5" fill="#E4761B" fill-rule="nonzero" points="10.3933012 29.3644682 15.0772123 27.0780089 11.0307531 23.9184237"></polygon>
                                                <polygon stroke="#E4761B" stroke-width="0.5" fill="#E4761B" fill-rule="nonzero" points="20.2461605 27.0780089 24.943879 29.3644682 24.2926197 23.9184237"></polygon>
                                                <polygon stroke="#D7C1B3" stroke-width="0.5" fill="#D7C1B3" fill-rule="nonzero" points="24.943879 29.3644682 20.2461605 27.0780089 20.6203234 30.1405274 20.5787234 31.4292978"></polygon>
                                                <polygon stroke="#D7C1B3" stroke-width="0.5" fill="#D7C1B3" fill-rule="nonzero" points="10.3933012 29.3644682 14.758516 31.4292978 14.7307827 30.1405274 15.0772123 27.0780089"></polygon>
                                                <polygon stroke="#233447" stroke-width="0.5" fill="#233447" fill-rule="nonzero" points="14.8277308 21.8951941 10.9198553 20.7449718 13.6775086 19.4839348"></polygon>
                                                <polygon stroke="#233447" stroke-width="0.5" fill="#233447" fill-rule="nonzero" points="20.4955234 21.8951941 21.6457457 19.4839348 24.4173012 20.7449718"></polygon>
                                                <polygon stroke="#CD6116" stroke-width="0.5" fill="#CD6116" fill-rule="nonzero" points="10.3932894 29.3644682 11.0584508 23.7382756 6.72099306 23.862957"></polygon>
                                                <polygon stroke="#CD6116" stroke-width="0.5" fill="#CD6116" fill-rule="nonzero" points="24.2787531 23.7382756 24.943879 29.3644682 28.6161753 23.862957"></polygon>
                                                <polygon stroke="#CD6116" stroke-width="0.5" fill="#CD6116" fill-rule="nonzero" points="27.5767679 17.5437867 19.7887975 17.8903348 20.5093901 21.8951941 21.6596123 19.4839348 24.4310494 20.7449718"></polygon>
                                                <polygon stroke="#CD6116" stroke-width="0.5" fill="#CD6116" fill-rule="nonzero" points="10.9189664 20.7449718 13.6905457 19.4839348 14.8267827 21.8951941 15.561242 17.8903348 7.75940491 17.5437867"></polygon>
                                                <polygon stroke="#E4751F" stroke-width="0.5" fill="#E4751F" fill-rule="nonzero" points="7.76027009 17.5437867 11.0306938 23.9184237 10.9198316 20.7449718"></polygon>
                                                <polygon stroke="#E4751F" stroke-width="0.5" fill="#E4751F" fill-rule="nonzero" points="24.4311679 20.7449718 24.2926197 23.9184237 27.5768864 17.5437867"></polygon>
                                                <polygon stroke="#E4751F" stroke-width="0.5" fill="#E4751F" fill-rule="nonzero" points="15.5621901 17.8903348 14.8277308 21.8951941 15.7423383 26.6206459 15.9502197 20.3985422"></polygon>
                                                <polygon stroke="#E4751F" stroke-width="0.5" fill="#E4751F" fill-rule="nonzero" points="19.7887975 17.8903348 19.4146346 20.3846756 19.580916 26.6206459 20.5093901 21.8951941"></polygon>
                                                <polygon stroke="#F6851B" stroke-width="0.5" fill="#F6851B" fill-rule="nonzero" points="20.5093901 21.8951941 19.580916 26.6206459 20.2461605 27.0780089 24.2926197 23.9184237 24.4311679 20.7449718"></polygon>
                                                <polygon stroke="#F6851B" stroke-width="0.5" fill="#F6851B" fill-rule="nonzero" points="10.9198553 20.7449718 11.0307175 23.9184237 15.0772123 27.0780089 15.7423382 26.6206459 14.8277308 21.8951941"></polygon>
                                                <polygon stroke="#C0AD9E" stroke-width="0.5" fill="#C0AD9E" fill-rule="nonzero" points="20.5787234 31.4292978 20.6203234 30.1405274 20.2738938 29.8356978 15.049479 29.8356978 14.7307827 30.1405274 14.758516 31.4292978 10.3933012 29.3644682 11.9176272 30.6116385 15.007879 32.7596681 20.3153753 32.7596681 23.4194938 30.6116385 24.943879 29.3644682"></polygon>
                                                <polygon stroke="#161616" stroke-width="0.5" fill="#161616" fill-rule="nonzero" points="20.246042 27.0780089 19.580916 26.6206459 15.7423383 26.6206459 15.0770938 27.0780089 14.7306642 30.1405274 15.0493605 29.8356978 20.2737753 29.8356978 20.6202049 30.1405274"></polygon>
                                                <polygon stroke="#763D16" stroke-width="0.5" fill="#763D16" fill-rule="nonzero" points="34.1592863 10.9060385 35.3372419 5.25207703 33.5772419 0 20.2461605 9.89441184 25.3735086 14.2319052 32.6211531 16.352083 34.2286197 14.4812682 33.5357606 13.9824237 34.6443828 12.9708682 33.7851234 12.3056237 34.8937456 11.4603496"></polygon>
                                                <polygon stroke="#763D16" stroke-width="0.5" fill="#763D16" fill-rule="nonzero" points="0 5.25207703 1.17790566 10.9060385 0.429589216 11.4603496 1.53820196 12.3056237 0.692885216 12.9708682 1.8015027 13.9824237 1.10861973 14.4812682 2.70225529 16.352083 9.94984047 14.2319052 15.0772123 9.89441184 1.74607158 0"></polygon>
                                                <polygon stroke="#F6851B" stroke-width="0.5" fill="#F6851B" fill-rule="nonzero" points="32.6211531 16.352083 25.3735086 14.2319052 27.5768864 17.5437867 24.2926197 23.9184237 28.6161753 23.862957 35.0600272 23.862957"></polygon>
                                                <polygon stroke="#F6851B" stroke-width="0.5" fill="#F6851B" fill-rule="nonzero" points="9.94984047 14.2319052 2.70225529 16.352083 0.291014993 23.862957 6.72099306 23.862957 11.0307412 23.9184237 7.76032938 17.5437867"></polygon>
                                                <polygon stroke="#F6851B" stroke-width="0.5" fill="#F6851B" fill-rule="nonzero" points="19.7887975 17.8903348 20.2461605 9.89442372 22.3524716 4.19889778 12.998516 4.19889778 15.0772123 9.89442372 15.5621901 17.8903348 15.7284716 20.4124089 15.7423382 26.6206459 19.580916 26.6206459 19.6086494 20.4124089"></polygon>
                                            </g>
                                        </g>
                                    </g>
                                </g>
                            </g>
                        </g>
                        <g id="编组-Clipped"></g>
                    </g>
                </g>
            </g>
        </g>
    </g>
</svg>