<?xml version="1.0" encoding="UTF-8"?>
<svg width="64px" height="64px" viewBox="0 0 64 64" version="1.1" xmlns="http://www.w3.org/2000/svg" xmlns:xlink="http://www.w3.org/1999/xlink">
    <title>png_not_found</title>
    <defs>
        <linearGradient x1="50%" y1="100%" x2="50%" y2="-1.22124533e-13%" id="linearGradient-1">
            <stop stop-color="#FFFFFF" offset="0%"></stop>
            <stop stop-color="#F0F0F1" offset="100%"></stop>
        </linearGradient>
    </defs>
    <g id="Market+Lend" stroke="none" stroke-width="1" fill="none" fill-rule="evenodd">
        <g id="Empty-Status" transform="translate(-808.000000, -268.000000)">
            <g id="Part-1" transform="translate(272.000000, 168.000000)">
                <g id="empty-status" transform="translate(400.000000, 100.000000)">
                    <g id="png-not-found" transform="translate(136.000000, 0.000000)">
                        <path d="M0,7.11111111 C0,3.18373333 3.18372338,0 7.11108889,0 L35.4291337,0 C37.7865486,0 40.0475193,0.936533333 41.7144474,2.60346667 L49.840822,10.7298667 C51.5077501,12.3968 52.4442806,14.6577778 52.4442806,17.0152 L52.4442806,56.8888889 C52.4442806,60.8162667 49.2605572,64 45.3331917,64 L7.11108889,64 C3.18372338,64 0,60.8162667 0,56.8888889 L0,7.11111111 Z" id="路径" fill="url(#linearGradient-1)" opacity="0.100000001"></path>
                        <path d="M7.11108889,29.7777778 C7.11108889,28.5504889 8.10601911,27.5555556 9.33330417,27.5555556 L21.7777097,27.5555556 C23.0049948,27.5555556 23.999925,28.5504889 23.999925,29.7777778 C23.999925,31.0050667 23.0049948,32 21.7777097,32 L9.33330417,32 C8.10601911,32 7.11108889,31.0050667 7.11108889,29.7777778 Z M7.11108889,40.4444444 C7.11108889,39.2171556 8.10601911,38.2222222 9.33330417,38.2222222 L17.3332792,38.2222222 C18.5605642,38.2222222 19.5554944,39.2171556 19.5554944,40.4444444 C19.5554944,41.6717333 18.5605642,42.6666667 17.3332792,42.6666667 L9.33330417,42.6666667 C8.10601911,42.6666667 7.11108889,41.6717333 7.11108889,40.4444444 Z M9.33330417,48.8888889 C8.10601911,48.8888889 7.11108889,49.8838222 7.11108889,51.1111111 C7.11108889,52.3384 8.10601911,53.3333333 9.33330417,53.3333333 L21.7777097,53.3333333 C23.0049948,53.3333333 23.999925,52.3384 23.999925,51.1111111 C23.999925,49.8838222 23.0049948,48.8888889 21.7777097,48.8888889 L9.33330417,48.8888889 Z" id="形状结合" fill="#777E90" opacity="0.200000003"></path>
                        <path d="M30.2221278,45.1241778 C30.2221278,36.8940444 36.8939292,30.2222222 45.1240368,30.2222222 C53.3541444,30.2222222 60.0259458,36.8940444 60.0259458,45.1241778 C60.0259458,48.3528 58.9991934,51.3416 57.2543989,53.7818667 L63.2808689,59.8083556 C64.2397104,60.7672 64.2397104,62.3217778 63.2808689,63.2806222 C62.3220275,64.2394667 60.7674545,64.2394667 59.8086131,63.2806222 L53.7822319,57.2542222 C51.341884,58.9992 48.3529156,60.0261333 45.1240368,60.0261333 C36.8939292,60.0261333 30.2221278,53.3543111 30.2221278,45.1241778 Z M55.0586724,45.1241778 C55.0586724,50.6109333 50.6107752,55.0588444 45.1240368,55.0588444 C39.6372984,55.0588444 35.1894011,50.6109333 35.1894011,45.1241778 C35.1894011,39.6374222 39.6372984,35.1895111 45.1240368,35.1895111 C50.6107752,35.1895111 55.0586724,39.6374222 55.0586724,45.1241778 Z" id="形状" fill="#777E90"></path>
                    </g>
                </g>
            </g>
        </g>
    </g>
</svg>