<?xml version="1.0" encoding="UTF-8"?>
<svg width="32px" height="32px" viewBox="0 0 32 32" version="1.1" xmlns="http://www.w3.org/2000/svg" xmlns:xlink="http://www.w3.org/1999/xlink">
    <title>telegram_logo_w_click</title>
    <g id="Market+Lend" stroke="none" stroke-width="1" fill="none" fill-rule="evenodd">
        <g id="Widget-3" transform="translate(-768.000000, -399.000000)" fill-rule="nonzero">
            <g id="社交" transform="translate(680.000000, 399.000000)">
                <g id="telegram-logo-w" transform="translate(88.000000, 0.000000)">
                    <path d="M16,32 C24.8365333,32 32,24.8365333 32,16 C32,7.16344 24.8365333,0 16,0 C7.16344,0 0,7.16344 0,16 C0,24.8365333 7.16344,32 16,32 Z" id="路径" fill="#5ADCFE"></path>
                    <g id="telegram" transform="translate(8.500000, 10.000000)" fill="#FFFFFF">
                        <path d="M0.698535924,4.95448864 L14.0010813,0.0599666531 C14.6184573,-0.153014474 15.1577783,0.203526717 14.9575196,1.0945427 L14.9575196,1.0945427 L12.6935722,11.2755124 C12.525807,11.9973566 12.0761962,12.1729313 11.4471649,11.8329029 L7.99791212,9.40653559 L6.33438757,10.935821 C6.16835889,11.1414958 5.91103603,11.2612028 5.63895661,11.2593366 L5.88371722,7.91027577 L12.2764549,2.40006309 C12.5547685,2.16652524 12.2142935,2.03476002 11.8476823,2.26728688 L3.94753005,7.01353087 L0.542072786,5.99984854 C-0.197153728,5.77608356 -0.213400465,5.29451705 0.698535924,4.95516263 L0.698535924,4.95448864 Z" id="路径"></path>
                    </g>
                </g>
            </g>
        </g>
    </g>
</svg>