<?xml version="1.0" encoding="UTF-8"?>
<svg width="32px" height="32px" viewBox="0 0 32 32" version="1.1" xmlns="http://www.w3.org/2000/svg" xmlns:xlink="http://www.w3.org/1999/xlink">
    <title>discord_logo_w_click</title>
    <g id="Market+Lend" stroke="none" stroke-width="1" fill="none" fill-rule="evenodd">
        <g id="Widget-3" transform="translate(-680.000000, -399.000000)" fill-rule="nonzero">
            <g id="discord-logo-w" transform="translate(680.000000, 399.000000)">
                <circle id="ellipse" fill="#5ADCFE" cx="16" cy="16" r="16"></circle>
                <path d="M21.81,11.5006446 C21.81,11.5006446 20.145,10.1547056 18.175,10 L18,10.3661367 C19.78,10.814783 20.595,11.4593898 21.45,12.2483885 C19.98,11.4748603 18.525,10.7477439 15.995,10.7477439 C13.465,10.7477439 12.01,11.4748603 10.54,12.2483885 C11.395,11.4593898 12.365,10.742587 13.99,10.3661367 L13.815,10 C11.75,10.2011173 10.18,11.5006446 10.18,11.5006446 C10.18,11.5006446 8.32,14.2853459 8,19.7516115 C9.875,21.9845294 12.725,22 12.725,22 L13.32,21.1800602 C12.31,20.8190804 11.165,20.1693167 10.18,18.9987108 C11.355,19.9166309 13.135,20.8758058 16,20.8758058 C18.865,20.8758058 20.64,19.9217877 21.82,18.9987108 C20.835,20.1693167 19.69,20.8190804 18.68,21.1800602 L19.275,22 C19.275,22 22.125,21.9845294 24,19.7516115 C23.67,14.2853459 21.81,11.5006446 21.81,11.5006446 Z M13.625,18.2509669 C12.92,18.2509669 12.35,17.5805758 12.35,16.7503223 C12.35,15.9200688 12.92,15.2496777 13.625,15.2496777 C14.33,15.2496777 14.9,15.9200688 14.9,16.7503223 C14.9,17.5805758 14.33,18.2509669 13.625,18.2509669 Z M18.355,18.2509669 C17.65,18.2509669 17.08,17.5805758 17.08,16.7503223 C17.08,15.9200688 17.65,15.2496777 18.355,15.2496777 C19.06,15.2496777 19.63,15.9200688 19.63,16.7503223 C19.63,17.5805758 19.055,18.2509669 18.355,18.2509669 Z" id="logo" fill="#FFFFFF"></path>
            </g>
        </g>
    </g>
</svg>