<?xml version="1.0" encoding="UTF-8"?>
<svg width="32px" height="32px" viewBox="0 0 32 32" version="1.1" xmlns="http://www.w3.org/2000/svg" xmlns:xlink="http://www.w3.org/1999/xlink">
    <title>twitter_logo_w_click</title>
    <g id="Market+Lend" stroke="none" stroke-width="1" fill="none" fill-rule="evenodd">
        <g id="Widget-3" transform="translate(-724.000000, -399.000000)" fill-rule="nonzero">
            <g id="社交" transform="translate(680.000000, 399.000000)">
                <g id="twitter-logo-w" transform="translate(44.000000, 0.000000)">
                    <path d="M16,0 C24.8365604,0 32,7.16344216 32,16 C32,24.8365578 24.8365604,32 16,32 C7.16343957,32 0,24.8365578 0,16 C0,7.16344216 7.16343957,0 16,0 Z" id="Combined-Shape-path" fill="#5ADCFE"></path>
                    <path d="M18.8854252,11 C17.1857657,11 15.8074893,12.3566667 15.8074893,14.02912 C15.8074893,14.26688 15.8345534,14.4980333 15.8873405,14.7198333 C13.3296809,14.5932867 11.0616809,13.3877333 9.544,11.5548067 C9.27942523,12.0023533 9.12719159,12.52254 9.12719159,13.0773467 C9.12719159,14.1284 9.67051068,15.0561733 10.4966595,15.5989733 C9.99195727,15.5837067 9.51763818,15.4471133 9.1028725,15.22004 C9.10217023,15.2326667 9.10217023,15.24536 9.10217023,15.2586133 C9.10217023,16.7259267 10.1631489,17.9507733 11.5711702,18.2285533 C11.3127236,18.2977933 11.0406809,18.3351133 10.7598939,18.3351133 C10.5616382,18.3351133 10.3688084,18.31576 10.1814045,18.2804467 C10.5731275,19.4839933 11.7091702,20.3598667 13.0563618,20.3845 C12.0028511,21.1971067 10.6760214,21.6812867 9.23410614,21.6812867 C8.98580841,21.6812867 8.74082977,21.6672733 8.5,21.6393133 C9.862,22.4984733 11.4791275,23 13.2174045,23 C18.8779573,23 21.9735107,18.3837467 21.9735107,14.3807933 C21.9735107,14.2496 21.9708298,14.1190333 21.9647023,13.98916 C22.5655955,13.5615933 23.0879152,13.0280867 23.5,12.4206267 C22.9485107,12.6617733 22.3551489,12.82426 21.7326809,12.89752 C22.3679786,12.52254 22.8558298,11.9290933 23.0858725,11.2217933 C22.4911702,11.5687533 21.8327657,11.8212133 21.131787,11.95712 C20.570213,11.36826 19.7704252,11 18.8854252,11 Z" id="Combined-Shape-path" fill="#FFFFFF"></path>
                </g>
            </g>
        </g>
    </g>
</svg>